<?xml version="1.0" encoding="UTF-8" standalone="no"?>
<!DOCTYPE svg PUBLIC "-//W3C//DTD SVG 1.1//EN" "http://www.w3.org/Graphics/SVG/1.1/DTD/svg11.dtd">
<!-- Created with Vectornator (http://vectornator.io/) -->
<svg height="100%" stroke-miterlimit="10" style="fill-rule:nonzero;clip-rule:evenodd;stroke-linecap:round;stroke-linejoin:round;" version="1.1" viewBox="0 0 734.8 848.5" width="100%" xml:space="preserve" xmlns="http://www.w3.org/2000/svg" xmlns:vectornator="http://vectornator.io" xmlns:xlink="http://www.w3.org/1999/xlink">
<defs>
<filter color-interpolation-filters="sRGB" filterUnits="userSpaceOnUse" height="846.1" id="Filter" width="739.39" x="2.7" y="6.4">
<feDropShadow dx="12.9904" dy="7.5" flood-color="#000000" flood-opacity="0.1" in="SourceGraphic" result="Shadow" stdDeviation="0.5"/>
</filter>
<filter color-interpolation-filters="sRGB" filterUnits="userSpaceOnUse" height="868.5" id="Filter_2" width="757.79" x="0" y="-2.5">
<feDropShadow dx="12.9904" dy="7.5" flood-color="#000000" flood-opacity="0.1" in="SourceGraphic" result="Shadow" stdDeviation="5"/>
</filter>
<clipPath id="TextBounds">
<rect height="635.977" width="691.538" x="26.3814" y="49.6625"/>
</clipPath>
<filter color-interpolation-filters="sRGB" filterUnits="userSpaceOnUse" height="358.003" id="Filter_3" width="683.314" x="36.9288" y="245.781">
<feDropShadow dx="12.9904" dy="7.5" flood-color="#000000" flood-opacity="0.33" in="SourceGraphic" result="Shadow" stdDeviation="5"/>
</filter>
<filter color-interpolation-filters="sRGB" filterUnits="userSpaceOnUse" height="139.054" id="Filter_4" width="164.577" x="447.439" y="118.525">
<feDropShadow dx="12.9904" dy="7.5" flood-color="#000000" flood-opacity="0.33" in="SourceGraphic" result="Shadow" stdDeviation="5"/>
</filter>
<filter color-interpolation-filters="sRGB" filterUnits="userSpaceOnUse" height="42.6445" id="Filter_5" width="45.6349" x="582.145" y="646.233">
<feDropShadow dx="12.9904" dy="7.5" flood-color="#000000" flood-opacity="0.33" in="SourceGraphic" result="Shadow" stdDeviation="5"/>
</filter>
<filter color-interpolation-filters="sRGB" filterUnits="userSpaceOnUse" height="42.6445" id="Filter_6" width="45.6349" x="555.046" y="618.892">
<feDropShadow dx="12.9904" dy="7.5" flood-color="#000000" flood-opacity="0.33" in="SourceGraphic" result="Shadow" stdDeviation="5"/>
</filter>
<filter color-interpolation-filters="sRGB" filterUnits="userSpaceOnUse" height="42.6445" id="Filter_7" width="45.6349" x="527.946" y="591.551">
<feDropShadow dx="12.9904" dy="7.5" flood-color="#000000" flood-opacity="0.33" in="SourceGraphic" result="Shadow" stdDeviation="5"/>
</filter>
<filter color-interpolation-filters="sRGB" filterUnits="userSpaceOnUse" height="42.6445" id="Filter_8" width="45.6349" x="501.405" y="643.296">
<feDropShadow dx="12.9904" dy="7.5" flood-color="#000000" flood-opacity="0.33" in="SourceGraphic" result="Shadow" stdDeviation="5"/>
</filter>
<filter color-interpolation-filters="sRGB" filterUnits="userSpaceOnUse" height="42.6445" id="Filter_9" width="45.6349" x="531.693" y="673.853">
<feDropShadow dx="12.9904" dy="7.5" flood-color="#000000" flood-opacity="0.33" in="SourceGraphic" result="Shadow" stdDeviation="5"/>
</filter>
<filter color-interpolation-filters="sRGB" filterUnits="userSpaceOnUse" height="42.6445" id="Filter_10" width="45.6349" x="595.253" y="579.04">
<feDropShadow dx="12.9904" dy="7.5" flood-color="#000000" flood-opacity="0.33" in="SourceGraphic" result="Shadow" stdDeviation="5"/>
</filter>
<filter color-interpolation-filters="sRGB" filterUnits="userSpaceOnUse" height="56.5657" id="Filter_11" width="40.0562" x="518.01" y="612.421">
<feDropShadow dx="12.9904" dy="7.5" flood-color="#000000" flood-opacity="0.33" in="SourceGraphic" result="Shadow" stdDeviation="5"/>
</filter>
<filter color-interpolation-filters="sRGB" filterUnits="userSpaceOnUse" height="89.5823" id="Filter_12" width="42.0727" x="533.364" y="612.421">
<feDropShadow dx="12.9904" dy="7.5" flood-color="#000000" flood-opacity="0.33" in="SourceGraphic" result="Shadow" stdDeviation="5"/>
</filter>
<filter color-interpolation-filters="sRGB" filterUnits="userSpaceOnUse" height="30.1524" id="Filter_13" width="66.236" x="518.01" y="638.834">
<feDropShadow dx="12.9904" dy="7.5" flood-color="#000000" flood-opacity="0.33" in="SourceGraphic" result="Shadow" stdDeviation="5"/>
</filter>
<filter color-interpolation-filters="sRGB" filterUnits="userSpaceOnUse" height="63.169" id="Filter_14" width="33.5112" x="550.735" y="638.834">
<feDropShadow dx="12.9904" dy="7.5" flood-color="#000000" flood-opacity="0.33" in="SourceGraphic" result="Shadow" stdDeviation="5"/>
</filter>
<filter color-interpolation-filters="sRGB" filterUnits="userSpaceOnUse" height="39.6843" id="Filter_15" width="92.4157" x="518.01" y="647.275">
<feDropShadow dx="12.9904" dy="7.5" flood-color="#000000" flood-opacity="0.33" in="SourceGraphic" result="Shadow" stdDeviation="5"/>
</filter>
<filter color-interpolation-filters="sRGB" filterUnits="userSpaceOnUse" height="36.7557" id="Filter_16" width="59.691" x="550.735" y="665.248">
<feDropShadow dx="12.9904" dy="7.5" flood-color="#000000" flood-opacity="0.33" in="SourceGraphic" result="Shadow" stdDeviation="5"/>
</filter>
<filter color-interpolation-filters="sRGB" filterUnits="userSpaceOnUse" height="76.3415" id="Filter_17" width="79.337" x="545.405" y="595.644">
<feDropShadow dx="12.9904" dy="7.5" flood-color="#000000" flood-opacity="0.33" in="SourceGraphic" result="Shadow" stdDeviation="5"/>
</filter>
<clipPath id="TextBounds_2">
<rect height="134.742" width="180.293" x="102.319" y="612.068"/>
</clipPath>
<filter color-interpolation-filters="sRGB" filterUnits="userSpaceOnUse" height="105.461" id="Filter_18" width="144.638" x="111.547" y="624.864">
<feDropShadow dx="12.9904" dy="7.5" flood-color="#000000" flood-opacity="0.33" in="SourceGraphic" result="Shadow" stdDeviation="5"/>
</filter>
<clipPath id="TextBounds_3">
<rect height="122.708" width="159.816" x="119.373" y="583.051"/>
</clipPath>
<filter color-interpolation-filters="sRGB" filterUnits="userSpaceOnUse" height="102.686" id="Filter_19" width="139.915" x="128.601" y="595.846">
<feDropShadow dx="12.9904" dy="7.5" flood-color="#000000" flood-opacity="0.33" in="SourceGraphic" result="Shadow" stdDeviation="5"/>
</filter>
<filter color-interpolation-filters="sRGB" filterUnits="userSpaceOnUse" height="95.6331" id="Filter_20" width="109.968" x="324.536" y="656.929">
<feDropShadow dx="12.9904" dy="7.5" flood-color="#000000" flood-opacity="0.33" in="SourceGraphic" result="Shadow" stdDeviation="5"/>
</filter>
<filter color-interpolation-filters="sRGB" filterUnits="userSpaceOnUse" height="143.849" id="Filter_21" width="152.985" x="299.483" y="634.239">
<feDropShadow dx="12.9904" dy="7.5" flood-color="#000000" flood-opacity="0.33" in="SourceGraphic" result="Shadow" stdDeviation="5"/>
</filter>
<filter color-interpolation-filters="sRGB" filterUnits="userSpaceOnUse" height="218.746" id="Filter_22" width="316.387" x="66.9818" y="78.4626">
<feDropShadow dx="12.9904" dy="7.5" flood-color="#000000" flood-opacity="0.33" in="SourceGraphic" result="Shadow" stdDeviation="5"/>
</filter>
<clipPath id="TextBounds_4">
<rect height="191.559" width="266.066" x="108.344" y="61.27"/>
</clipPath>
<clipPath id="TextBounds_5">
<rect height="78.5398" width="58.8089" x="39.6685" y="218.068"/>
</clipPath>
<clipPath id="TextBounds_6">
<rect height="102.508" width="81.3492" x="60.5505" y="195.139"/>
</clipPath>
</defs>
<clipPath id="ArtboardFrame">
<rect height="848.5" width="734.8" x="0" y="0"/>
</clipPath>
<g clip-path="url(#ArtboardFrame)" id="Hexbin" vectornator:layerName="Hexbin">
<g filter="url(#Filter)" vectornator:shadowAngle="0.523599" vectornator:shadowColor="#000000" vectornator:shadowOffset="15" vectornator:shadowOpacity="0.1" vectornator:shadowRadius="1">
<clipPath id="ClipPath">
<path d="M728.1 213.5L728.1 635.6L369.4 844L2.7 635.6L2.7 213.5L369.4 6.4L728.1 213.5Z"/>
</clipPath>
<g clip-path="url(#ClipPath)">
<path d="M-76.7 436.4C-76.7 192.235 121.235-5.69999 365.4-5.69999C609.565-5.69999 807.5 192.235 807.5 436.4C807.5 680.565 609.565 878.5 365.4 878.5C121.235 878.5-76.7 680.565-76.7 436.4Z" fill="#f9ecc6" fill-rule="nonzero" opacity="1" stroke="none"/>
</g>
</g>
<path d="M705.5 195.2L427.7 34.8L367.4 0L307.1 34.8L29.3 195.2L0 212.1L0 636.4L29.3 653.3L310.5 815.7L367.4 848.5L424.3 815.7L705.5 653.3L734.8 636.4L734.8 212.1L705.5 195.2ZM705.5 620.5L367.4 815.7L29.3 620.5L29.3 230L367.4 34.8L367.4 34.8L705.5 230L705.5 620.5Z" fill="#4c3f2e" fill-rule="nonzero" filter="url(#Filter_2)" stroke="none" vectornator:shadowAngle="0.523599" vectornator:shadowColor="#000000" vectornator:shadowOffset="15" vectornator:shadowOpacity="0.1" vectornator:shadowRadius="10"/>
</g>
<g id="Initials" vectornator:layerName="Initials">
<g fill="#4c3f2e" filter="url(#Filter_3)" stroke="#4c3f2e" stroke-linecap="round" stroke-linejoin="round" stroke-width="7.56331" vectornator:shadowAngle="0.523599" vectornator:shadowColor="#000000" vectornator:shadowOffset="15" vectornator:shadowOpacity="0.33" vectornator:shadowRadius="10">
<path clip-path="url(#TextBounds)" d="M418.67 523.103C422.19 525.449 423.95 528.823 423.95 533.223C423.95 540.849 420.65 548.329 414.05 555.663C407.45 562.996 399.09 568.936 388.97 573.483C378.85 578.029 368.95 580.303 359.27 580.303C344.017 580.303 332.357 574.656 324.29 563.363C316.224 552.069 311.237 542.243 309.33 533.883C307.424 525.523 304.857 510.489 301.63 488.783C300.75 482.623 299.137 478.589 296.79 476.683C294.444 474.776 289.897 473.823 283.15 473.823L208.79 474.263C184.737 513.276 163.03 541.069 143.67 557.643C124.31 574.216 103.777 582.503 82.0705 582.503C68.5772 582.503 58.3105 579.863 51.2705 574.583C44.2305 569.303 40.7105 562.409 40.7105 553.903C40.7105 547.156 42.9105 541.143 47.3105 535.863C51.7105 530.583 57.8705 526.916 65.7905 524.863C65.7905 536.596 67.4772 544.443 70.8505 548.403C74.2238 552.363 79.7238 554.343 87.3505 554.343C102.017 554.343 116.317 548.549 130.25 536.963C144.184 525.376 161.71 504.329 182.83 473.823C176.084 473.236 171.317 472.063 168.53 470.303C165.744 468.543 164.35 465.903 164.35 462.383C164.35 459.743 165.084 456.149 166.55 451.603C168.017 447.056 169.484 444.196 170.95 443.023C175.644 444.783 185.177 446.689 199.55 448.743C215.977 423.809 233.87 395.503 253.23 363.823C272.59 332.143 284.324 312.929 288.43 306.183C294.004 297.089 301.924 284.036 312.19 267.023C315.71 261.743 318.864 257.929 321.65 255.583C324.437 253.236 328.03 252.063 332.43 252.063C336.244 252.063 340.79 252.796 346.07 254.263C342.844 259.543 340.424 267.169 338.81 277.143C337.197 287.116 336.244 297.823 335.95 309.263L335.51 327.303C335.51 342.556 335.877 360.376 336.61 380.763C337.344 401.149 338.15 417.796 339.03 430.703C340.79 456.516 342.844 477.269 345.19 492.963C347.537 508.656 351.57 521.709 357.29 532.123C363.01 542.536 371.004 547.743 381.27 547.743C388.017 547.743 394.617 545.469 401.07 540.923C407.524 536.376 413.39 530.436 418.67 523.103ZM267.75 453.143C275.964 453.143 286.23 452.849 298.55 452.263L298.11 383.183C298.11 358.543 299.137 338.156 301.19 322.023C274.204 365.143 257.924 391.543 252.35 401.223L222.87 450.943C239.59 452.409 254.55 453.143 267.75 453.143Z"/>
<path clip-path="url(#TextBounds)" d="M689.51 259.983C690.977 259.983 692.297 260.863 693.47 262.623C692.004 264.383 690.39 269.076 688.63 276.703C686.87 284.329 685.697 290.489 685.11 295.183C684.23 300.169 682.03 302.663 678.51 302.663C666.19 302.663 643.017 301.196 608.99 298.263C601.657 297.676 592.344 297.016 581.05 296.283C569.757 295.549 561.91 295.183 557.51 295.183C552.23 295.183 548.564 295.843 546.51 297.163C544.457 298.483 542.99 301.196 542.11 305.303C536.244 334.636 529.35 370.423 521.43 412.663C533.75 413.543 548.27 413.983 564.99 413.983C604.004 413.983 635.244 410.463 658.71 403.423L660.91 405.183C659.15 408.116 657.39 413.176 655.63 420.363C653.87 427.549 652.697 433.343 652.11 437.743L587.43 436.423C579.217 436.129 555.75 435.543 517.03 434.663C502.07 513.569 494.59 556.543 494.59 563.583C494.59 568.276 494.737 571.209 495.03 572.383C486.23 576.489 476.99 578.543 467.31 578.543C455.284 578.543 449.27 575.316 449.27 568.863C449.27 565.636 451.177 554.489 454.99 535.423C457.044 524.276 460.71 506.383 465.99 481.743C468.337 470.596 474.864 438.256 485.57 384.723C496.277 331.189 501.63 301.343 501.63 295.183C501.63 293.423 501.044 292.249 499.87 291.663C498.697 291.076 496.644 290.783 493.71 290.783L475.67 291.663L464.23 292.103C459.83 292.103 457.63 290.636 457.63 287.703C457.63 284.769 459.977 277.729 464.67 266.583C498.697 268.636 537.417 269.663 580.83 269.663C616.324 269.663 641.477 269.003 656.29 267.683C671.104 266.363 682.177 263.796 689.51 259.983Z"/>
</g>
</g>
<g id="DNA" vectornator:layerName="DNA">
<path d="M473.401 124.636C473.396 126.61 475.014 128.2 476.988 128.201C477.039 128.207 478.305 128.235 480.238 128.605C480.233 129.126 480.29 129.643 480.415 130.17C480.596 130.945 480.932 131.657 481.326 132.3L459.178 167.811C458.764 167.824 458.354 167.856 457.947 167.949C457.528 168.049 457.143 168.197 456.761 168.365C455.185 166.398 454.371 164.9 454.23 164.637C453.372 162.862 451.241 162.145 449.453 162.988C447.679 163.847 446.938 165.993 447.797 167.767C447.846 167.862 449.311 170.743 452.582 174.292C452.538 174.965 452.555 175.652 452.717 176.341C453.585 180.085 457.34 182.445 461.094 181.576C461.191 181.554 461.263 181.51 461.346 181.491C466.143 184.424 472.372 186.894 480.243 187.691C481.886 189.562 484.457 190.518 487.054 189.917C488.518 189.578 489.751 188.789 490.68 187.759C497.169 187.236 504.504 185.681 512.794 182.632L519.676 180.168C527.374 177.624 534.339 176.373 540.646 175.915C540.825 176.338 541.021 176.725 541.258 177.091L526.364 200.969C525.926 200.906 525.506 200.907 525.072 200.928C523.436 196.76 521.718 190.853 520.656 186.067L513.693 187.679C515.102 194.08 517.081 199.684 519.339 204.713C518.628 206.126 518.353 207.776 518.741 209.452C519.426 212.415 521.919 214.465 524.775 214.791C528.333 220.362 532.203 224.874 535.924 228.398C535.949 228.668 535.969 228.952 536.034 229.225C536.834 232.69 540.078 234.917 543.506 234.58C548.692 238.197 552.561 239.758 553.035 239.908C554.633 240.417 556.299 239.752 557.152 238.398C557.292 238.156 557.43 237.885 557.53 237.602C558.126 235.724 557.098 233.701 555.228 233.085C554.891 232.975 552.57 232.14 549.308 230.249C549.647 229.428 549.811 228.546 549.805 227.632L568.19 198.167L576.228 185.285C576.765 185.165 577.257 184.963 577.717 184.745C580.844 186.83 582.606 188.546 582.86 188.792C584.229 190.216 586.493 190.264 587.926 188.903C588.147 188.689 588.334 188.459 588.484 188.21C589.334 186.847 589.185 185.043 588.029 183.841C587.744 183.517 585.53 181.333 581.58 178.723C581.606 178.135 581.571 177.533 581.432 176.929C580.562 173.165 576.808 170.824 573.046 171.694C572.041 171.926 571.15 172.377 570.371 172.961C565.434 171.045 559.472 169.502 552.506 168.854C550.877 166.855 548.225 165.819 545.526 166.443C544.07 166.781 542.834 167.559 541.909 168.598C534.983 168.938 527.309 170.228 518.876 172.889C518.876 172.889 511.902 174.996 511.937 175.303C504.761 178.085 498.425 179.658 492.8 180.387L508.063 155.923C509.381 159.798 511.143 167.103 511.886 172.132L518.279 167.164C517.091 160.981 515.361 155.714 513.317 151.075C513.929 149.723 514.135 148.178 513.778 146.637C513.106 143.743 510.735 141.701 507.969 141.3C503.653 135.053 498.757 130.715 494.115 127.709C494.077 127.478 494.076 127.231 494.027 127.003C493.158 123.258 489.404 120.907 485.651 121.775C484.912 121.949 484.244 122.241 483.624 122.623C479.725 121.319 477.067 121.029 476.967 121.025C475 121.048 473.4 122.659 473.409 124.637L473.401 124.636ZM567.669 179.085L541.633 220.815C541.504 220.837 541.392 220.836 541.258 220.865C540.703 220.995 540.189 221.203 539.705 221.439C536.946 218.858 534.084 215.637 531.394 211.686C532.392 210.145 532.8 208.23 532.355 206.306C532.34 206.237 532.301 206.179 532.283 206.115L548.531 180.103C548.573 180.094 548.628 180.088 548.665 180.081C551.526 179.419 553.552 177.093 553.987 174.365C559.275 175.086 563.856 176.359 567.675 177.86C567.638 178.255 567.629 178.67 567.658 179.083L567.669 179.085ZM482.656 176.717C481.646 177.155 480.799 177.838 480.127 178.657C474.602 178.07 470.109 176.563 466.506 174.671C466.492 174.181 466.449 173.679 466.334 173.186C466.215 172.676 466.042 172.204 465.825 171.762L488.494 135.44C488.591 135.419 488.685 135.431 488.791 135.406C490.536 135 491.962 133.956 492.91 132.588C496.171 135.006 499.466 138.362 502.401 142.982C500.752 144.422 499.853 146.585 500.046 148.846L482.656 176.717Z" fill="#4c3f2e" fill-rule="nonzero" filter="url(#Filter_4)" stroke="none" vectornator:shadowAngle="0.523599" vectornator:shadowColor="#000000" vectornator:shadowOffset="15" vectornator:shadowOpacity="0.33" vectornator:shadowRadius="10"/>
</g>
<g id="NN" vectornator:layerName="NN">
<path d="M585.426 668.025C581.024 663.584 581.056 656.415 585.497 652.014C589.938 647.612 597.107 647.643 601.509 652.085C605.911 656.526 605.879 663.695 601.438 668.097C596.997 672.498 589.828 672.467 585.426 668.025Z" fill="#4c3f2e" fill-rule="nonzero" filter="url(#Filter_5)" stroke="none" vectornator:shadowAngle="0.523599" vectornator:shadowColor="#000000" vectornator:shadowOffset="15" vectornator:shadowOpacity="0.33" vectornator:shadowRadius="10"/>
<path d="M558.327 640.684C553.925 636.243 553.957 629.074 558.398 624.672C562.839 620.27 570.008 620.302 574.41 624.744C578.812 629.185 578.78 636.353 574.339 640.755C569.897 645.157 562.729 645.126 558.327 640.684Z" fill="#4c3f2e" fill-rule="nonzero" filter="url(#Filter_6)" stroke="none" vectornator:shadowAngle="0.523599" vectornator:shadowColor="#000000" vectornator:shadowOffset="15" vectornator:shadowOpacity="0.33" vectornator:shadowRadius="10"/>
<path d="M531.227 613.343C526.825 608.902 526.857 601.733 531.298 597.331C535.74 592.929 542.908 592.961 547.31 597.402C551.712 601.844 551.68 609.012 547.239 613.414C542.798 617.816 535.629 617.784 531.227 613.343Z" fill="#4c3f2e" fill-rule="nonzero" filter="url(#Filter_7)" stroke="none" vectornator:shadowAngle="0.523599" vectornator:shadowColor="#000000" vectornator:shadowOffset="15" vectornator:shadowOpacity="0.33" vectornator:shadowRadius="10"/>
<path d="M504.686 665.088C500.284 660.647 500.316 653.478 504.757 649.076C509.198 644.674 516.367 644.706 520.769 649.147C525.171 653.589 525.139 660.757 520.698 665.159C516.257 669.561 509.088 669.53 504.686 665.088Z" fill="#4c3f2e" fill-rule="nonzero" filter="url(#Filter_8)" stroke="none" vectornator:shadowAngle="0.523599" vectornator:shadowColor="#000000" vectornator:shadowOffset="15" vectornator:shadowOpacity="0.33" vectornator:shadowRadius="10"/>
<path d="M534.973 695.646C530.571 691.205 530.603 684.036 535.044 679.634C539.486 675.232 546.654 675.264 551.056 679.705C555.458 684.146 555.426 691.315 550.985 695.717C546.544 700.119 539.375 700.087 534.973 695.646Z" fill="#4c3f2e" fill-rule="nonzero" filter="url(#Filter_9)" stroke="none" vectornator:shadowAngle="0.523599" vectornator:shadowColor="#000000" vectornator:shadowOffset="15" vectornator:shadowOpacity="0.33" vectornator:shadowRadius="10"/>
<path d="M598.534 600.832C594.132 596.391 594.164 589.222 598.605 584.82C603.046 580.418 610.215 580.45 614.617 584.891C619.019 589.333 618.987 596.501 614.546 600.903C610.105 605.305 602.936 605.273 598.534 600.832Z" fill="#4c3f2e" fill-rule="nonzero" filter="url(#Filter_10)" stroke="none" vectornator:shadowAngle="0.523599" vectornator:shadowColor="#000000" vectornator:shadowOffset="15" vectornator:shadowOpacity="0.33" vectornator:shadowRadius="10"/>
<path d="M518.866 650.631L534.22 615.777" fill="none" filter="url(#Filter_11)" stroke="#4c3f2e" stroke-linecap="butt" stroke-linejoin="miter" stroke-opacity="0.693694" stroke-width="1.71171" vectornator:shadowAngle="0.523599" vectornator:shadowColor="#000000" vectornator:shadowOffset="15" vectornator:shadowOpacity="0.33" vectornator:shadowRadius="10"/>
<path d="M551.591 683.648L534.22 615.777" fill="none" filter="url(#Filter_12)" stroke="#4c3f2e" stroke-linecap="butt" stroke-linejoin="miter" stroke-opacity="0.693694" stroke-width="1.71171" vectornator:shadowAngle="0.523599" vectornator:shadowColor="#000000" vectornator:shadowOffset="15" vectornator:shadowOpacity="0.33" vectornator:shadowRadius="10"/>
<path d="M518.866 650.631L560.4 642.19" fill="none" filter="url(#Filter_13)" stroke="#4c3f2e" stroke-linecap="butt" stroke-linejoin="miter" stroke-opacity="0.693694" stroke-width="1.71171" vectornator:shadowAngle="0.523599" vectornator:shadowColor="#000000" vectornator:shadowOffset="15" vectornator:shadowOpacity="0.33" vectornator:shadowRadius="10"/>
<path d="M551.591 683.648L560.4 642.19" fill="none" filter="url(#Filter_14)" stroke="#4c3f2e" stroke-linecap="butt" stroke-linejoin="miter" stroke-opacity="0.693694" stroke-width="1.71171" vectornator:shadowAngle="0.523599" vectornator:shadowColor="#000000" vectornator:shadowOffset="15" vectornator:shadowOpacity="0.33" vectornator:shadowRadius="10"/>
<path d="M518.866 650.631L586.58 668.603" fill="none" filter="url(#Filter_15)" stroke="#4c3f2e" stroke-linecap="butt" stroke-linejoin="miter" stroke-opacity="0.693694" stroke-width="1.71171" vectornator:shadowAngle="0.523599" vectornator:shadowColor="#000000" vectornator:shadowOffset="15" vectornator:shadowOpacity="0.33" vectornator:shadowRadius="10"/>
<path d="M551.591 683.648L586.58 668.603" fill="none" filter="url(#Filter_16)" stroke="#4c3f2e" stroke-linecap="butt" stroke-linejoin="miter" stroke-opacity="0.693694" stroke-width="1.71171" vectornator:shadowAngle="0.523599" vectornator:shadowColor="#000000" vectornator:shadowOffset="15" vectornator:shadowOpacity="0.33" vectornator:shadowRadius="10"/>
<g filter="url(#Filter_17)" vectornator:shadowAngle="0.523599" vectornator:shadowColor="#000000" vectornator:shadowOffset="15" vectornator:shadowOpacity="0.33" vectornator:shadowRadius="10">
<path d="M546.264 599.338L600.893 599.003" fill="none" opacity="1" stroke="#4c3f2e" stroke-linecap="butt" stroke-linejoin="miter" stroke-opacity="0.693694" stroke-width="1.71718"/>
<path d="M573.168 626.482L600.893 599.003" fill="none" opacity="1" stroke="#4c3f2e" stroke-linecap="butt" stroke-linejoin="miter" stroke-opacity="0.693694" stroke-width="1.71718"/>
<path d="M600.073 653.627L600.893 599.003" fill="none" opacity="1" stroke="#4c3f2e" stroke-linecap="butt" stroke-linejoin="miter" stroke-opacity="0.693694" stroke-width="1.71718"/>
</g>
</g>
<g id="Bits" vectornator:layerName="Bits">
<g fill="#4c3f2e" filter="url(#Filter_18)" stroke="none" vectornator:shadowAngle="0.523599" vectornator:shadowColor="#000000" vectornator:shadowOffset="15" vectornator:shadowOpacity="0.33" vectornator:shadowRadius="10">
<path clip-path="url(#TextBounds_2)" d="M128.839 630.156L133.59 632.948C134.88 633.706 135.713 634.828 136.091 636.313C136.469 637.798 136.278 639.185 135.52 640.475L128.565 652.31C127.807 653.6 126.687 654.441 125.206 654.834C123.725 655.227 122.339 655.044 121.05 654.286L116.298 651.494C115.009 650.736 114.167 649.616 113.775 648.135C113.382 646.654 113.57 645.259 114.339 643.95L121.295 632.115C122.064 630.806 123.191 629.963 124.677 629.585C126.162 629.208 127.549 629.398 128.839 630.156ZM118.913 647.174C118.648 647.886 118.61 648.527 118.798 649.097C118.986 649.667 119.403 650.141 120.047 650.52C120.711 650.91 121.415 651.005 122.158 650.804C122.902 650.603 123.463 650.18 123.842 649.535L128.574 641.483L118.913 647.174ZM131.02 637.256C131.448 635.747 131.045 634.63 129.812 633.905C129.167 633.526 128.476 633.432 127.738 633.624C127.001 633.816 126.437 634.243 126.046 634.907L121.314 642.959L131.02 637.256Z"/>
<path clip-path="url(#TextBounds_2)" d="M147.815 641.309L152.566 644.101C153.856 644.859 154.69 645.98 155.067 647.465C155.445 648.951 155.255 650.338 154.497 651.628L147.541 663.463C146.783 664.753 145.663 665.594 144.182 665.987C142.701 666.379 141.316 666.197 140.026 665.439L135.275 662.646C133.985 661.888 133.144 660.769 132.751 659.288C132.358 657.806 132.547 656.411 133.316 655.103L140.272 643.267C141.041 641.959 142.168 641.116 143.653 640.738C145.138 640.36 146.525 640.551 147.815 641.309ZM137.89 658.327C137.625 659.039 137.586 659.679 137.774 660.249C137.962 660.819 138.379 661.294 139.024 661.673C139.688 662.063 140.391 662.157 141.135 661.956C141.878 661.755 142.439 661.332 142.818 660.687L147.55 652.636L137.89 658.327ZM149.996 648.409C150.424 646.899 150.022 645.782 148.789 645.058C148.144 644.679 147.452 644.585 146.715 644.777C145.977 644.968 145.413 645.396 145.023 646.06L140.291 654.111L149.996 648.409Z"/>
<path clip-path="url(#TextBounds_2)" d="M154.251 673.799L163.999 657.212L161.638 655.825L163.042 653.435L169.153 653.849L171.543 655.254L159.002 676.591L154.251 673.799Z"/>
<path clip-path="url(#TextBounds_2)" d="M185.768 663.614L190.519 666.406C191.809 667.164 192.643 668.286 193.02 669.771C193.398 671.256 193.208 672.643 192.45 673.933L185.494 685.768C184.736 687.058 183.616 687.899 182.135 688.292C180.654 688.685 179.268 688.502 177.979 687.744L173.227 684.952C171.938 684.194 171.097 683.074 170.704 681.593C170.311 680.112 170.499 678.717 171.269 677.408L178.224 665.573C178.993 664.264 180.121 663.421 181.606 663.043C183.091 662.666 184.478 662.856 185.768 663.614ZM175.843 680.632C175.577 681.344 175.539 681.985 175.727 682.555C175.915 683.125 176.332 683.599 176.977 683.978C177.64 684.368 178.344 684.463 179.087 684.262C179.831 684.061 180.392 683.638 180.771 682.993L185.503 674.941L175.843 680.632ZM187.949 670.714C188.377 669.204 187.974 668.088 186.741 667.363C186.097 666.984 185.405 666.89 184.667 667.082C183.93 667.273 183.366 667.701 182.976 668.365L178.244 676.416L187.949 670.714Z"/>
<path clip-path="url(#TextBounds_2)" d="M204.744 674.766L209.495 677.559C210.785 678.317 211.619 679.438 211.997 680.923C212.374 682.408 212.184 683.796 211.426 685.086L204.47 696.921C203.712 698.211 202.593 699.052 201.111 699.445C199.63 699.837 198.245 699.655 196.955 698.897L192.204 696.104C190.914 695.346 190.073 694.227 189.68 692.745C189.288 691.264 189.476 689.869 190.245 688.561L197.201 676.725C197.97 675.417 199.097 674.573 200.582 674.196C202.067 673.818 203.455 674.008 204.744 674.766ZM194.819 691.785C194.554 692.496 194.515 693.137 194.703 693.707C194.892 694.277 195.308 694.752 195.953 695.131C196.617 695.521 197.32 695.615 198.064 695.414C198.807 695.213 199.368 694.79 199.747 694.145L204.479 686.094L194.819 691.785ZM206.926 681.866C207.353 680.357 206.951 679.24 205.718 678.516C205.073 678.137 204.382 678.043 203.644 678.234C202.906 678.426 202.342 678.854 201.952 679.518L197.22 687.569L206.926 681.866Z"/>
<path clip-path="url(#TextBounds_2)" d="M223.721 685.919L228.472 688.711C229.762 689.469 230.595 690.591 230.973 692.076C231.35 693.561 231.16 694.948 230.402 696.238L223.447 708.074C222.689 709.363 221.569 710.204 220.088 710.597C218.607 710.99 217.221 710.807 215.931 710.049L211.18 707.257C209.89 706.499 209.049 705.379 208.657 703.898C208.264 702.417 208.452 701.022 209.221 699.713L216.177 687.878C216.946 686.569 218.073 685.726 219.558 685.348C221.044 684.971 222.431 685.161 223.721 685.919ZM213.795 702.937C213.53 703.649 213.492 704.29 213.68 704.86C213.868 705.43 214.285 705.904 214.929 706.283C215.593 706.673 216.297 706.768 217.04 706.567C217.784 706.366 218.345 705.943 218.724 705.298L223.456 697.246L213.795 702.937ZM225.902 693.019C226.33 691.51 225.927 690.393 224.694 689.668C224.049 689.289 223.358 689.196 222.62 689.387C221.882 689.579 221.318 690.006 220.928 690.67L216.196 698.722L225.902 693.019Z"/>
</g>
<g fill="#4c3f2e" filter="url(#Filter_19)" stroke="none" vectornator:shadowAngle="0.523599" vectornator:shadowColor="#000000" vectornator:shadowOffset="15" vectornator:shadowOpacity="0.33" vectornator:shadowRadius="10">
<path clip-path="url(#TextBounds_3)" d="M145.893 601.138L150.644 603.931C151.934 604.689 152.767 605.81 153.145 607.295C153.522 608.78 153.332 610.168 152.574 611.458L145.619 623.293C144.861 624.583 143.741 625.424 142.26 625.817C140.779 626.209 139.393 626.027 138.103 625.269L133.352 622.476C132.062 621.718 131.221 620.599 130.829 619.117C130.436 617.636 130.624 616.241 131.393 614.933L138.349 603.097C139.118 601.789 140.245 600.945 141.73 600.568C143.215 600.19 144.603 600.38 145.893 601.138ZM135.967 618.157C135.702 618.868 135.664 619.509 135.852 620.079C136.04 620.649 136.457 621.124 137.101 621.503C137.765 621.893 138.469 621.987 139.212 621.786C139.956 621.585 140.517 621.162 140.896 620.517L145.628 612.466L135.967 618.157ZM148.074 608.238C148.502 606.729 148.099 605.612 146.866 604.888C146.221 604.509 145.53 604.415 144.792 604.606C144.054 604.798 143.49 605.226 143.1 605.89L138.368 613.941L148.074 608.238Z"/>
<path clip-path="url(#TextBounds_3)" d="M152.329 633.629L162.077 617.042L159.715 615.654L161.12 613.265L167.23 613.679L169.62 615.083L157.08 636.421L152.329 633.629Z"/>
<path clip-path="url(#TextBounds_3)" d="M171.305 644.781L181.053 628.195L178.692 626.807L180.096 624.417L186.207 624.831L188.597 626.236L176.056 647.574L171.305 644.781Z"/>
<path clip-path="url(#TextBounds_3)" d="M190.281 655.934L200.029 639.348L197.668 637.96L199.073 635.57L205.183 635.984L207.573 637.389L195.033 658.726L190.281 655.934Z"/>
<path clip-path="url(#TextBounds_3)" d="M209.258 667.087L219.006 650.5L216.644 649.112L218.049 646.722L224.16 647.137L226.549 648.541L214.009 669.879L209.258 667.087Z"/>
<path clip-path="url(#TextBounds_3)" d="M228.234 678.239L237.982 661.653L235.621 660.265L237.025 657.875L243.136 658.289L245.526 659.694L232.985 681.032L228.234 678.239Z"/>
</g>
</g>
<g id="TS" vectornator:layerName="TS">
<path d="M328.318 731.28L339.663 726.437C342.756 720.437 345.07 715.74 346.604 712.345C348.138 708.95 349.606 705.28 351.008 701.335L362.353 706.72L373.362 687.28L385.043 704.425L396.915 689.575L407.733 663.21" fill="none" filter="url(#Filter_20)" stroke="#4c3f2e" stroke-linecap="round" stroke-linejoin="round" stroke-width="7.56331" vectornator:shadowAngle="0.523599" vectornator:shadowColor="#000000" vectornator:shadowOffset="15" vectornator:shadowOpacity="0.33" vectornator:shadowRadius="10"/>
<g filter="url(#Filter_21)" vectornator:shadowAngle="0.523599" vectornator:shadowColor="#000000" vectornator:shadowOffset="15" vectornator:shadowOpacity="0.33" vectornator:shadowRadius="10">
<path d="M323.118 746.879C338.191 747.51 353.208 747.825 368.167 747.825C390.607 747.825 408.304 746.879 412.932 746.879" fill="none" opacity="0.500488" stroke="#4c3f2e" stroke-linecap="round" stroke-linejoin="round" stroke-width="7.56331"/>
<path d="M412.774 736.48C416.034 737.218 423.437 744.707 425.404 745.489C427.37 746.272 418.893 755.225 415.001 756.806" fill="none" opacity="0.500488" stroke="#4c3f2e" stroke-linecap="round" stroke-linejoin="round" stroke-width="7.56331"/>
<path d="M313.191 743.098C313.506 728.025 313.664 713.008 313.664 698.048C313.664 675.609 313.191 657.912 313.191 653.283" fill="none" opacity="0.500488" stroke="#4c3f2e" stroke-linecap="round" stroke-linejoin="round" stroke-width="7.56331"/>
<path d="M303.264 653.441C304.002 650.182 311.491 642.779 312.274 640.812C313.056 638.845 322.01 647.323 323.591 651.215" fill="none" opacity="0.500488" stroke="#4c3f2e" stroke-linecap="round" stroke-linejoin="round" stroke-width="7.56331"/>
</g>
</g>
<g id="Entropy" vectornator:layerName="Entropy">
<g filter="url(#Filter_22)" vectornator:shadowAngle="0.523599" vectornator:shadowColor="#000000" vectornator:shadowOffset="15" vectornator:shadowOpacity="0.33" vectornator:shadowRadius="10">
<g fill="#4c3f2e" opacity="1" stroke="#4c3f2e" stroke-linecap="butt" stroke-linejoin="miter" stroke-width="0.0834826">
<path clip-path="url(#TextBounds_4)" d="M125.019 218.224L130.775 214.834L132.46 217.695C131.892 216.73 131.71 215.87 131.915 215.115C132.121 214.36 132.694 213.705 133.636 213.15L136.532 211.445C138.094 210.525 139.77 210.297 141.559 210.76C143.348 211.223 144.703 212.236 145.623 213.798L150.696 222.416C151.63 224.001 151.865 225.688 151.402 227.477C150.939 229.266 149.926 230.621 148.364 231.541L142.607 234.93L145.996 240.686L140.24 244.076L125.019 218.224ZM140.923 232.069L143.784 230.385C144.588 229.911 145.106 229.227 145.337 228.333C145.569 227.438 145.448 226.589 144.974 225.784L139.901 217.167C139.441 216.386 138.763 215.879 137.869 215.648C136.975 215.416 136.125 215.537 135.321 216.011C134.54 216.471 134.033 217.148 133.802 218.043C133.57 218.937 133.684 219.775 134.144 220.556L140.923 232.069Z"/>
<path clip-path="url(#TextBounds_4)" d="M170.144 222.57L169.937 222.692C167.846 223.923 165.407 224.183 162.621 223.471C159.835 222.76 157.555 220.899 155.783 217.889L148.68 205.825C146.907 202.814 146.386 199.918 147.116 197.137C147.845 194.356 149.256 192.349 151.347 191.118L151.554 190.996L153.238 193.857C151.466 195.21 151.074 196.725 152.062 198.403L163.914 218.533C164.915 220.233 166.43 220.625 168.459 219.709L170.144 222.57Z"/>
<path clip-path="url(#TextBounds_4)" d="M174.216 216.32L171.679 212.011C170.677 210.311 170.379 208.7 170.782 207.178C171.186 205.656 172.274 204.218 174.046 202.866C172.017 203.782 170.236 204.041 168.702 203.645C167.169 203.248 165.908 202.21 164.921 200.533L162.384 196.224L168.14 192.835L171.509 198.557C171.983 199.361 172.667 199.879 173.561 200.111C174.456 200.342 175.293 200.228 176.075 199.768C176.879 199.294 177.397 198.61 177.628 197.716C177.86 196.821 177.739 195.972 177.265 195.168L173.896 189.446L179.618 186.077L182.155 190.386C183.143 192.063 183.444 193.665 183.059 195.192C182.673 196.718 181.588 198.147 179.802 199.476C181.845 198.583 183.627 198.339 185.149 198.742C186.671 199.146 187.926 200.186 188.913 201.864L191.45 206.173L185.728 209.541L182.339 203.785C181.879 203.004 181.202 202.497 180.307 202.266C179.413 202.034 178.563 202.155 177.759 202.629C176.978 203.089 176.471 203.766 176.24 204.661C176.008 205.555 176.123 206.393 176.583 207.174L179.972 212.931L174.216 216.32Z"/>
<path clip-path="url(#TextBounds_4)" d="M180.301 174.07L180.542 173.928C182.634 172.697 185.066 172.441 187.841 173.159C190.616 173.877 192.889 175.741 194.662 178.752L201.765 190.816C203.537 193.826 204.064 196.719 203.346 199.493C202.628 202.268 201.223 204.271 199.132 205.502L198.891 205.644L197.207 202.783C199.001 201.417 199.405 199.895 198.417 198.218L186.565 178.088C185.564 176.387 184.038 176.002 181.986 176.931L180.301 174.07Z"/>
<path clip-path="url(#TextBounds_4)" d="M220.197 189.247L204.977 163.395L210.733 160.006L225.954 185.858L220.197 189.247Z"/>
<path clip-path="url(#TextBounds_4)" d="M225.6 159.004L231.357 155.615C232.919 154.695 234.595 154.466 236.384 154.929C238.173 155.392 239.528 156.405 240.448 157.968L245.521 166.585C246.441 168.148 246.673 169.829 246.217 171.63C245.761 173.43 244.751 174.79 243.188 175.71L237.432 179.1C235.87 180.02 234.188 180.251 232.388 179.795C230.587 179.339 229.22 178.318 228.287 176.732L223.213 168.115C222.293 166.553 222.07 164.873 222.545 163.078C223.019 161.282 224.038 159.924 225.6 159.004ZM228.969 164.726L234.043 173.343C234.503 174.125 235.184 174.637 236.085 174.88C236.986 175.123 237.827 175.014 238.609 174.554C239.413 174.081 239.927 173.391 240.152 172.485C240.377 171.579 240.259 170.735 239.799 169.954L234.726 161.337C234.266 160.555 233.588 160.049 232.694 159.817C231.799 159.586 230.95 159.707 230.146 160.181C229.364 160.641 228.858 161.318 228.627 162.212C228.395 163.107 228.509 163.945 228.969 164.726Z"/>
<path clip-path="url(#TextBounds_4)" d="M260.07 138.709L273.586 161.666C274.506 163.229 274.738 164.91 274.281 166.711C273.825 168.511 272.816 169.871 271.253 170.791L265.497 174.18C262.119 176.169 259.07 175.38 256.351 171.813L259.247 170.108C260.521 171.958 262.043 172.361 263.812 171.319L266.673 169.635C267.478 169.161 267.995 168.477 268.227 167.583C268.458 166.689 268.337 165.839 267.864 165.035L264.495 159.313C265.388 161.356 264.985 162.877 263.284 163.879L260.423 165.563C258.861 166.483 257.179 166.715 255.379 166.259C253.578 165.802 252.211 164.782 251.278 163.196L246.204 154.579C245.284 153.016 245.061 151.337 245.536 149.541C246.01 147.745 247.029 146.388 248.591 145.468L260.07 138.709ZM256.032 144.939L253.137 146.644C252.355 147.104 251.849 147.781 251.618 148.676C251.386 149.57 251.5 150.408 251.96 151.189L257.034 159.807C257.494 160.588 258.175 161.1 259.076 161.343C259.977 161.586 260.818 161.478 261.6 161.018C262.404 160.544 262.918 159.854 263.143 158.948C263.368 158.042 263.25 157.199 262.79 156.418L256.032 144.939Z"/>
<path clip-path="url(#TextBounds_4)" d="M274.443 130.247L280.2 126.857L281.884 129.718C281.316 128.753 281.134 127.893 281.34 127.138C281.545 126.383 282.118 125.728 283.061 125.173L285.956 123.468C287.519 122.548 289.194 122.32 290.983 122.783C292.772 123.246 294.127 124.259 295.047 125.821L300.12 134.438C301.054 136.024 301.289 137.711 300.826 139.5C300.363 141.289 299.35 142.644 297.788 143.564L292.031 146.953L295.421 152.709L289.664 156.099L274.443 130.247ZM290.347 144.092L293.208 142.408C294.012 141.934 294.53 141.25 294.762 140.356C294.993 139.461 294.872 138.612 294.399 137.807L289.325 129.19C288.865 128.409 288.188 127.902 287.293 127.671C286.399 127.439 285.549 127.56 284.745 128.034C283.964 128.494 283.457 129.171 283.226 130.066C282.994 130.96 283.109 131.798 283.569 132.579L290.347 144.092Z"/>
<path clip-path="url(#TextBounds_4)" d="M319.568 134.593L319.361 134.715C317.27 135.946 314.831 136.206 312.045 135.494C309.259 134.783 306.98 132.922 305.207 129.912L298.104 117.848C296.332 114.837 295.81 111.941 296.54 109.16C297.27 106.378 298.68 104.372 300.771 103.141L300.978 103.019L302.662 105.88C300.89 107.233 300.498 108.748 301.486 110.425L313.338 130.556C314.339 132.256 315.854 132.648 317.883 131.732L319.568 134.593Z"/>
<path clip-path="url(#TextBounds_4)" d="M323.64 128.343L321.103 124.034C320.102 122.334 319.803 120.722 320.207 119.201C320.61 117.679 321.698 116.241 323.47 114.889C321.441 115.805 319.66 116.064 318.126 115.667C316.593 115.271 315.332 114.233 314.345 112.556L311.808 108.247L317.564 104.858L320.933 110.58C321.407 111.384 322.091 111.902 322.985 112.134C323.88 112.365 324.718 112.251 325.499 111.791C326.303 111.317 326.821 110.633 327.053 109.739C327.284 108.844 327.163 107.995 326.69 107.191L323.321 101.469L329.043 98.0999L331.579 102.409C332.567 104.086 332.868 105.688 332.483 107.215C332.097 108.741 331.012 110.17 329.226 111.499C331.269 110.606 333.051 110.361 334.573 110.765C336.095 111.169 337.35 112.209 338.338 113.887L340.874 118.196L335.152 121.564L331.763 115.808C331.303 115.027 330.626 114.52 329.732 114.289C328.837 114.057 327.988 114.178 327.183 114.652C326.402 115.112 325.896 115.789 325.664 116.684C325.433 117.578 325.547 118.416 326.007 119.197L329.396 124.954L323.64 128.343Z"/>
<path clip-path="url(#TextBounds_4)" d="M329.725 86.0934L329.967 85.9514C332.058 84.7202 334.491 84.4636 337.265 85.1818C340.04 85.9 342.314 87.7643 344.086 90.7746L351.189 102.839C352.962 105.849 353.489 108.742 352.77 111.516C352.052 114.291 350.648 116.294 348.556 117.525L348.315 117.667L346.631 114.806C348.426 113.44 348.829 111.918 347.842 110.241L335.99 90.1106C334.988 88.4101 333.462 88.0247 331.41 88.9544L329.725 86.0934Z"/>
</g>
<path clip-path="url(#TextBounds_5)" d="M69.1445 268.321L67.0389 264.744L85.006 254.166L87.1116 257.742L69.1445 268.321Z" fill="#4c3f2e" opacity="1" stroke="#4c3f2e" stroke-linecap="butt" stroke-linejoin="miter" stroke-width="0.0834826"/>
<path clip-path="url(#TextBounds_6)" d="M94.345 231.006L118.679 237.304L112.012 262.398L134.969 248.882L140.162 257.701L103 279.581L98.5403 272.008L105.639 244.029L79.7768 237.906L75.3176 230.332L110.864 209.403L116.057 218.223L94.345 231.006Z" fill="#4c3f2e" opacity="1" stroke="#4c3f2e" stroke-linecap="butt" stroke-linejoin="miter" stroke-width="0.185663"/>
</g>
</g>
</svg>
